<?xml version="1.0" encoding="utf-8"?>
<!-- Generator: Adobe Illustrator 20.1.0, SVG Export Plug-In . SVG Version: 6.00 Build 0)  -->
<svg version="1.1" id="Calque_1" xmlns="http://www.w3.org/2000/svg" xmlns:xlink="http://www.w3.org/1999/xlink" x="0px" y="0px"
	 viewBox="0 0 419 232" style="enable-background:new 0 0 419 232;" xml:space="preserve">
<style type="text/css">
	.st0{stroke:#E71F74;stroke-width:5;stroke-miterlimit:10;}
	.st1{fill:#FFFFFF;stroke:#FFFFFF;stroke-miterlimit:10;}
	.st2{fill:#575756;}
	.st3{fill:none;stroke:#000000;stroke-width:3;stroke-miterlimit:10;}
	.st4{stroke:#010202;stroke-width:5;stroke-miterlimit:10;}
	.st5{fill:#575756;stroke:#3C3C3B;stroke-width:3;stroke-miterlimit:10;}
	.st6{fill:none;}
	.st7{fill:#FFFFFF;}
	.st8{font-family:'Symtext';}
	.st9{font-size:60px;}
	.st10{fill:#009FE3;}
	.st11{fill:none;stroke:#99D5ED;stroke-width:3;stroke-miterlimit:10;}
	.st12{fill:#E71D73;}
	.st13{fill:none;stroke:#D690BE;stroke-width:3;stroke-miterlimit:10;}
	.st14{opacity:0.43;fill:#FFFFFF;enable-background:new    ;}
	.st15{fill:#E6007E;stroke:#000000;stroke-width:3;stroke-miterlimit:10;}
	.st16{stroke:#000000;stroke-width:3;stroke-miterlimit:10;}
	.st17{font-size:29.1201px;}
	.st18{fill:none;stroke:#FFFFFF;stroke-miterlimit:10;}
	.st19{fill:#E71D73;stroke:#000000;stroke-width:3;stroke-miterlimit:10;}
</style>
<g id="Calque_2">
	<path class="st0" d="M363,225.2H53c-26.5,0-48-21.5-48-48v-124c0-26.5,21.5-48,48-48h310c26.5,0,48,21.5,48,48v124
		C411,203.7,389.5,225.2,363,225.2z"/>
</g>
<ellipse class="st1" cx="62.9" cy="127.3" rx="22" ry="23.3"/>
<ellipse class="st2" cx="60.9" cy="125.9" rx="22" ry="23.3"/>
<line class="st3" x1="60.9" y1="125.9" x2="40.4" y2="47.3"/>
<ellipse class="st4" cx="61.3" cy="126.6" rx="4.7" ry="4.2"/>
<circle class="st5" cx="44.9" cy="64.5" r="24.3"/>
<rect x="104" y="30.9" class="st6" width="231" height="50"/>
<text transform="matrix(1 0 0 1 105.2473 74.8306)" class="st7 st8 st9">RETRO</text>
<text transform="matrix(1 0 0 1 105.2473 74.8306)" class="st3 st8 st9">RETRO</text>
<rect x="100.1" y="26.3" class="st6" width="231" height="50"/>
<text transform="matrix(1 0 0 1 101.2926 70.2957)" class="st10 st8 st9">RETRO</text>
<text transform="matrix(1 0 0 1 101.2926 70.2957)" class="st11 st8 st9">RETRO</text>
<rect x="150.6" y="98.2" class="st6" width="150.7" height="50"/>
<text transform="matrix(1 0 0 1 150.6013 142.1416)" class="st7 st8 st9">MAN</text>
<text transform="matrix(1 0 0 1 150.6013 142.1416)" class="st3 st8 st9">MAN</text>
<rect x="145.1" y="93.3" class="st6" width="150.7" height="50"/>
<text transform="matrix(1 0 0 1 145.0753 137.3031)" class="st12 st8 st9">MAN</text>
<text transform="matrix(1 0 0 1 145.0753 137.3031)" class="st13 st8 st9">MAN</text>
<circle class="st14" cx="49.5" cy="55.9" r="11.5"/>
<ellipse class="st15" cx="352.3" cy="187.9" rx="28.2" ry="27.2"/>
<ellipse class="st16" cx="352.3" cy="187.9" rx="22" ry="21.2"/>
<rect x="340.6" y="176.4" class="st6" width="26.8" height="25.1"/>
<text transform="matrix(1.0366 0 0 1 342.9463 197.7553)" class="st8 st17">S</text>
<text transform="matrix(1.0366 0 0 1 342.9463 197.7553)" class="st18 st8 st17">S</text>
<rect x="338.6" y="174.5" class="st6" width="26.8" height="25.1"/>
<text transform="matrix(1.0366 0 0 1 340.9355 195.8393)" class="st7 st8 st17">S</text>
<text transform="matrix(1.0366 0 0 1 340.9355 195.8393)" class="st18 st8 st17">S</text>
<ellipse class="st19" cx="290.9" cy="187.9" rx="28.2" ry="27.2"/>
<ellipse class="st16" cx="290.9" cy="187.9" rx="22" ry="21.2"/>
<polygon class="st6" points="307.6,201.7 279.1,202.8 279.1,177.8 307.6,176.6 "/>
<text transform="matrix(1.0366 0 0 1 282.2837 197.9565)" class="st8 st17">E</text>
<text transform="matrix(1.0366 0 0 1 282.2837 197.9565)" class="st18 st8 st17">E</text>
<rect x="278.4" y="174.5" class="st6" width="26.8" height="25.1"/>
<text transform="matrix(1.0366 0 0 1 280.7256 195.8403)" class="st7 st8 st17">E</text>
<text transform="matrix(1.0366 0 0 1 280.7256 195.8403)" class="st18 st8 st17">E</text>
<ellipse class="st19" cx="229.2" cy="186.9" rx="28.2" ry="27.2"/>
<ellipse class="st16" cx="229.2" cy="186.9" rx="22" ry="21.2"/>
<rect x="218.2" y="176.4" class="st6" width="26.8" height="25.1"/>
<text transform="matrix(1.0366 0 0 1 218.3057 197.7553)" class="st8 st17">M</text>
<text transform="matrix(1.0366 0 0 1 218.3057 197.7553)" class="st18 st8 st17">M</text>
<rect x="216.1" y="174.5" class="st6" width="26.8" height="25.1"/>
<text transform="matrix(1.0366 0 0 1 216.2944 195.8403)" class="st7 st8 st17">M</text>
<text transform="matrix(1.0366 0 0 1 216.2944 195.8403)" class="st18 st8 st17">M</text>
<ellipse class="st19" cx="167.5" cy="186.7" rx="28.2" ry="27.2"/>
<ellipse class="st16" cx="167.5" cy="186.9" rx="22" ry="21.2"/>
<rect x="158.2" y="177.9" class="st6" width="26.8" height="25.1"/>
<text transform="matrix(1.0366 0 0 1 160.5288 199.2251)" class="st8 st17">A</text>
<text transform="matrix(1.0366 0 0 1 160.5288 199.2251)" class="st18 st8 st17">A</text>
<rect x="155.5" y="175.5" class="st6" width="26.8" height="25.1"/>
<text transform="matrix(1.0366 0 0 1 157.8291 196.7983)" class="st7 st8 st17">A</text>
<text transform="matrix(1.0366 0 0 1 157.8291 196.7983)" class="st18 st8 st17">A</text>
<ellipse class="st15" cx="105" cy="186.7" rx="28.2" ry="27.2"/>
<ellipse class="st16" cx="105" cy="186.9" rx="22" ry="21.2"/>
<rect x="96.1" y="176.6" class="st6" width="26.8" height="25.1"/>
<text transform="matrix(1.0366 0 0 1 98.4692 197.9487)" class="st8 st17">G</text>
<text transform="matrix(1.0366 0 0 1 98.4692 197.9487)" class="st18 st8 st17">G</text>
<rect x="93.1" y="174.1" class="st6" width="26.8" height="25.1"/>
<text transform="matrix(1.0366 0 0 1 95.4619 195.4272)" class="st7 st8 st17">G</text>
<text transform="matrix(1.0366 0 0 1 95.4619 195.4272)" class="st18 st8 st17">G</text>
</svg>
