<?xml version="1.0" encoding="utf-8"?>
<!-- Generator: Adobe Illustrator 20.1.0, SVG Export Plug-In . SVG Version: 6.00 Build 0)  -->
<svg version="1.1" id="Calque_1" xmlns="http://www.w3.org/2000/svg" xmlns:xlink="http://www.w3.org/1999/xlink" x="0px" y="0px"
	 viewBox="0 0 595.3 841.9" style="enable-background:new 0 0 595.3 841.9;" xml:space="preserve">
<style type="text/css">
	.st0{fill:#B2B2B2;}
	.st1{fill:none;stroke:#000000;stroke-miterlimit:10;}
	.st2{fill:#878787;}
	.st3{fill:none;stroke:#000000;stroke-width:0.5;stroke-miterlimit:10;}
	.st4{fill:none;stroke:#000000;stroke-width:3;stroke-miterlimit:10;}
	.st5{fill:none;}
	.st6{font-family:'Symtext';}
	.st7{font-size:14px;}
	.st8{font-size:36px;}
	.st9{fill:#E30613;stroke:#000000;stroke-width:3;stroke-miterlimit:10;}
</style>
<g id="XMLID_2_">
	<g>
		<polygon class="st0" points="414.7,497.9 414.7,543.3 220.8,543.3 222,497.9 		"/>
	</g>
	<g>
		<polyline class="st1" points="414.7,497.9 414.7,543.3 220.8,543.3 222,497.9 		"/>
	</g>
</g>
<g id="XMLID_1_">
	<g>
		<polygon class="st0" points="368.5,335.6 414.7,497.9 222,497.9 222,497.8 222,497.2 188.6,335.6 		"/>
		<polygon class="st2" points="188.6,335.6 222,497.2 222,497.8 		"/>
		<polygon class="st0" points="222,497.8 220.8,542.5 188.6,378.8 188.6,335.6 		"/>
	</g>
	<g>
		<polyline class="st1" points="222,497.8 222,497.9 414.7,497.9 368.5,335.6 188.6,335.6 		"/>
		<polygon class="st3" points="222,497.8 220.8,542.5 188.6,378.8 188.6,335.6 222,497.2 		"/>
	</g>
</g>
<g>
	<g>
		<path d="M282.7,124.2c0.3,5.9,0.7,11.8,1,17.7c-5.8,0.2-11.7,0.5-17.9,0.8c-1.3-14.6-2.6-29.2-3.7-43.9c19-1.4,38.1-1.9,57.1-1.5
			c-0.2,5.9-0.3,11.8-0.5,17.7c6.1,0.1,12.2,0.3,18.4,0.6c-0.6,8.8-1.2,17.6-1.8,26.4c-5.9-0.2-11.6-0.4-17.3-0.5
			c0.2-5.9,0.3-11.8,0.5-17.7C306.6,123.6,294.8,123.7,282.7,124.2z M300.4,106c-6.2,0.1-12.4,0.2-18.7,0.5c0.2,2.9,0.3,5.9,0.5,8.8
			c6.1-0.2,12.2-0.4,18.3-0.5C300.5,111.9,300.4,109,300.4,106z"/>
		<path d="M286.3,196.4c0.2,2.9,0.3,5.9,0.5,8.8c15-0.4,28.4-0.3,43.5,0.1c-0.2,2.9-0.4,5.9-0.6,8.8c-19.7-0.5-36.4-0.4-57.7,0.4
			c-1.5-14.6-2.9-29.2-4.3-43.8c23.4-1.1,42.9-1.3,64.9-0.6c-0.2,2.9-0.4,5.9-0.6,8.8c-16.2-0.5-30.8-0.5-46.9-0.1
			c0.2,2.9,0.4,5.9,0.5,8.8c10.4-0.3,20.3-0.4,30.3-0.2c-0.1,2.9-0.1,5.9-0.2,8.8C306.1,196.1,296.5,196.1,286.3,196.4z"/>
		<path d="M274.3,242.4c24.6-0.7,42.5-0.7,67.4,0c-0.3,2.9-0.6,5.8-0.9,8.8c-9.7-0.3-18.3-0.4-26.6-0.5c-0.2,11.7-0.5,23.5-0.7,35.2
			c-3.8,0-7.5,0-11.3,0c-0.2-11.7-0.4-23.5-0.6-35.2c-8.4,0-16.9,0.2-26.5,0.5C274.9,248.3,274.6,245.3,274.3,242.4z"/>
		<path d="M292.5,340.4c0.2,5.9,0.4,11.7,0.6,17.6c-3.2,0-6.5,0-9.8,0c-0.8-14.6-1.8-29.2-3-43.8c11.6-0.2,21.8-0.2,32.3-0.2
			c-0.1,5.9-0.2,11.7-0.2,17.6c3.3,0,6.7,0,10.2,0c-0.3,8.8-0.6,17.6-0.9,26.3c-3.2,0-6.4,0-9.6,0c0.1-5.9,0.1-11.7,0.2-17.6
			C305.7,340.3,299.2,340.4,292.5,340.4z M302.2,322.8c-3.4,0-6.9,0-10.4,0.1c0.1,2.9,0.2,5.9,0.3,8.8c3.4,0,6.8,0,10.2,0
			C302.3,328.6,302.3,325.7,302.2,322.8z"/>
		<path d="M320.2,429.9c-11.7,0-23.4,0-35.2,0c0-14.6-0.3-29.3-0.9-43.9c12.4,0,24.3,0,36.4,0C320.3,400.6,320.2,415.3,320.2,429.9z
			 M311.4,394.8c-6,0-11.9,0-17.9,0c0.1,8.8,0.2,17.6,0.3,26.4c5.9,0,11.7,0,17.6,0C311.4,412.3,311.4,403.6,311.4,394.8z"/>
	</g>
</g>
<ellipse class="st4" cx="264" cy="466.3" rx="13" ry="10.3"/>
<ellipse class="st4" cx="314.6" cy="466.3" rx="13" ry="10.3"/>
<ellipse class="st4" cx="365.2" cy="466.3" rx="13" ry="10.3"/>
<rect x="258.5" y="460.3" class="st5" width="14" height="14.8"/>
<text transform="matrix(1 0 0 1 258.5 470.5039)" class="st6 st7">M</text>
<rect x="311.3" y="460.3" class="st5" width="14" height="14.8"/>
<text transform="matrix(1 0 0 1 311.3215 470.5039)" class="st6 st7">A</text>
<rect x="360.5" y="460.3" class="st5" width="12.7" height="14.8"/>
<text transform="matrix(1 0 0 1 360.5 470.5039)" class="st6 st7">N</text>
<rect x="228.5" y="501.5" class="st5" width="174.5" height="32.5"/>
<text transform="matrix(1 0 0 1 247.1953 527.8672)" class="st6 st8">GAMES</text>
<circle class="st9" cx="222" cy="356.7" r="7.7"/>
</svg>
