<?xml version="1.0" encoding="utf-8"?>
<!-- Generator: Adobe Illustrator 20.1.0, SVG Export Plug-In . SVG Version: 6.00 Build 0)  -->
<svg version="1.1" id="Calque_1" xmlns="http://www.w3.org/2000/svg" xmlns:xlink="http://www.w3.org/1999/xlink" x="0px" y="0px"
	 viewBox="0 0 595.3 841.9" style="enable-background:new 0 0 595.3 841.9;" xml:space="preserve">
<style type="text/css">
	.st0{stroke:#E71F74;stroke-width:5;stroke-miterlimit:10;}
	.st1{fill:#FFFFFF;stroke:#FFFFFF;stroke-miterlimit:10;}
	.st2{fill:#575756;}
	.st3{fill:none;stroke:#000000;stroke-width:3;stroke-miterlimit:10;}
	.st4{stroke:#010202;stroke-width:5;stroke-miterlimit:10;}
	.st5{fill:#575756;stroke:#3C3C3B;stroke-width:3;stroke-miterlimit:10;}
	.st6{fill:none;}
	.st7{fill:#FFFFFF;}
	.st8{font-family:'Symtext';}
	.st9{font-size:60px;}
	.st10{fill:#009FE3;}
	.st11{fill:none;stroke:#99D5ED;stroke-width:3;stroke-miterlimit:10;}
	.st12{fill:#E71D73;}
	.st13{fill:none;stroke:#D690BE;stroke-width:3;stroke-miterlimit:10;}
	.st14{stroke:#000000;stroke-miterlimit:10;}
	.st15{fill:#FFFFFF;stroke:#000000;stroke-miterlimit:10;}
	.st16{fill:#009FE3;stroke:#000000;stroke-miterlimit:10;}
	.st17{fill:#E71D73;stroke:#000000;stroke-miterlimit:10;}
	.st18{font-family:'MyriadPro-Regular';}
	.st19{font-size:12px;}
	.st20{opacity:0.43;fill:#FFFFFF;enable-background:new    ;}
	.st21{font-size:36px;}
	.st22{font-size:21px;}
	.st23{font-family:'MyriadPro-Cond';}
	.st24{fill:#E6007E;stroke:#000000;stroke-width:3;stroke-miterlimit:10;}
	.st25{stroke:#000000;stroke-width:3;stroke-miterlimit:10;}
	.st26{font-size:29.1201px;}
	.st27{fill:none;stroke:#FFFFFF;stroke-miterlimit:10;}
	.st28{fill:#E71D73;stroke:#000000;stroke-width:3;stroke-miterlimit:10;}
</style>
<g id="Calque_2">
	<path class="st0" d="M465,410.4H155c-26.5,0-48-21.5-48-48v-124c0-26.5,21.5-48,48-48h310c26.5,0,48,21.5,48,48v124
		C513,388.9,491.5,410.4,465,410.4z"/>
</g>
<g id="Calque_1_1_">
	<ellipse class="st1" cx="164.9" cy="312.5" rx="22" ry="23.3"/>
	<ellipse class="st2" cx="162.9" cy="311.1" rx="22" ry="23.3"/>
	<line class="st3" x1="162.9" y1="311.1" x2="142.4" y2="232.5"/>
	<ellipse class="st4" cx="163.3" cy="311.8" rx="4.7" ry="4.2"/>
	<circle class="st5" cx="146.9" cy="249.7" r="24.3"/>
	<rect x="206" y="216.1" class="st6" width="231" height="50"/>
	<text transform="matrix(1 0 0 1 207.2473 260.0157)" class="st7 st8 st9">RETRO</text>
	<text transform="matrix(1 0 0 1 207.2473 260.0157)" class="st3 st8 st9">RETRO</text>
	<rect x="202.1" y="211.5" class="st6" width="231" height="50"/>
	<text transform="matrix(1 0 0 1 203.2926 255.4808)" class="st10 st8 st9">RETRO</text>
	<text transform="matrix(1 0 0 1 203.2926 255.4808)" class="st11 st8 st9">RETRO</text>
	<rect x="252.6" y="283.4" class="st6" width="150.7" height="50"/>
	<text transform="matrix(1 0 0 1 252.6013 327.3267)" class="st7 st8 st9">MAN</text>
	<text transform="matrix(1 0 0 1 252.6013 327.3267)" class="st3 st8 st9">MAN</text>
	<rect x="247.1" y="278.5" class="st6" width="150.7" height="50"/>
	<text transform="matrix(1 0 0 1 247.0753 322.4882)" class="st12 st8 st9">MAN</text>
	<text transform="matrix(1 0 0 1 247.0753 322.4882)" class="st13 st8 st9">MAN</text>
	<rect x="74.4" y="517.5" class="st14" width="33.7" height="33.7"/>
	<rect x="74.4" y="556.8" class="st15" width="33.7" height="33.7"/>
	<rect x="74.4" y="596.2" class="st16" width="33.7" height="33.7"/>
	<rect x="74.4" y="635.5" class="st17" width="33.7" height="33.7"/>
	<rect x="119.6" y="527.2" class="st6" width="45.2" height="10.2"/>
	<text transform="matrix(1 0 0 1 119.5971 535.6786)" class="st18 st19">#000000</text>
	<rect x="119.6" y="567.9" class="st6" width="45.2" height="11.5"/>
	<text transform="matrix(1 0 0 1 119.5971 576.4286)" class="st18 st19">#FFFFFF</text>
	<rect x="119.4" y="607.7" class="st6" width="45.5" height="10.5"/>
	<text transform="matrix(1 0 0 1 119.4303 616.2618)" class="st18 st19">#009FE3</text>
	<rect x="119.8" y="643.4" class="st6" width="44.8" height="11.8"/>
	<text transform="matrix(1 0 0 1 119.8053 651.9286)" class="st18 st19">#E71D73</text>
	<circle class="st20" cx="151.5" cy="241.1" r="11.5"/>
	<rect x="153.7" y="28.2" class="st6" width="335" height="110"/>
	<text transform="matrix(1 0 0 1 191.9872 54.5339)" class="st8 st21">Logo retro </text>
	<text transform="matrix(1 0 0 1 202.4872 97.7339)" class="st8 st21">man games</text>
	<rect x="262.8" y="472.5" class="st6" width="316.8" height="25.4"/>
	<text transform="matrix(1 0 0 1 284.2806 487.9305)" class="st8 st22">Direction artistique </text>
	<rect x="307.5" y="527" class="st6" width="215" height="244"/>
	<text transform="matrix(1 0 0 1 308.9297 541.5313)" class="st23 st22">Le logo a pour couleurs et polices </text>
	<text transform="matrix(1 0 0 1 314.2297 566.7313)" class="st23 st22">un style particulièrement Kitsh.</text>
	<text transform="matrix(1 0 0 1 325.1297 617.1313)" class="st23 st22">Celui ci afin de coller à l’a</text>
	<text transform="matrix(1 0 0 1 498.9297 617.1313)" class="st23 st22">-</text>
	<text transform="matrix(1 0 0 1 313.7297 642.3313)" class="st23 st22">biance rétro voulue par le client</text>
	<text transform="matrix(1 0 0 1 313.8297 692.7313)" class="st23 st22">Le logo ayant une forte identité </text>
	<text transform="matrix(1 0 0 1 308.4297 717.9313)" class="st23 st22">iconographique, les ressources se </text>
	<text transform="matrix(1 0 0 1 320.7297 743.1313)" class="st23 st22">devront d’être en accord avec </text>
	<text transform="matrix(1 0 0 1 391.8297 768.3313)" class="st23 st22">celui-ci</text>
	<text transform="matrix(1 0 0 1 24.1661 489.4802)" class="st8 st22">Code Couleur</text>
</g>
<g id="Games">
	<ellipse class="st24" cx="454.3" cy="373.1" rx="28.2" ry="27.2"/>
	<ellipse class="st25" cx="454.3" cy="373.1" rx="22" ry="21.2"/>
	<rect x="442.6" y="361.6" class="st6" width="26.8" height="25.1"/>
	<text transform="matrix(1.0366 0 0 1 444.9463 382.9404)" class="st8 st26">S</text>
	<text transform="matrix(1.0366 0 0 1 444.9463 382.9404)" class="st27 st8 st26">S</text>
	<rect x="440.6" y="359.7" class="st6" width="26.8" height="25.1"/>
	<text transform="matrix(1.0366 0 0 1 442.9355 381.0244)" class="st7 st8 st26">S</text>
	<text transform="matrix(1.0366 0 0 1 442.9355 381.0244)" class="st27 st8 st26">S</text>
	<ellipse class="st28" cx="392.9" cy="373.1" rx="28.2" ry="27.2"/>
	<ellipse class="st25" cx="392.9" cy="373.1" rx="22" ry="21.2"/>
	<polygon class="st6" points="409.6,386.9 381.1,388 381.1,363 409.6,361.8 	"/>
	<text transform="matrix(1.0366 0 0 1 384.2837 383.1416)" class="st8 st26">E</text>
	<text transform="matrix(1.0366 0 0 1 384.2837 383.1416)" class="st27 st8 st26">E</text>
	<rect x="380.4" y="359.7" class="st6" width="26.8" height="25.1"/>
	<text transform="matrix(1.0366 0 0 1 382.7256 381.0254)" class="st7 st8 st26">E</text>
	<text transform="matrix(1.0366 0 0 1 382.7256 381.0254)" class="st27 st8 st26">E</text>
	<ellipse class="st28" cx="331.2" cy="372.1" rx="28.2" ry="27.2"/>
	<ellipse class="st25" cx="331.2" cy="372.1" rx="22" ry="21.2"/>
	<rect x="320.2" y="361.6" class="st6" width="26.8" height="25.1"/>
	<text transform="matrix(1.0366 0 0 1 320.3057 382.9404)" class="st8 st26">M</text>
	<text transform="matrix(1.0366 0 0 1 320.3057 382.9404)" class="st27 st8 st26">M</text>
	<rect x="318.1" y="359.7" class="st6" width="26.8" height="25.1"/>
	<text transform="matrix(1.0366 0 0 1 318.2944 381.0254)" class="st7 st8 st26">M</text>
	<text transform="matrix(1.0366 0 0 1 318.2944 381.0254)" class="st27 st8 st26">M</text>
	<ellipse class="st28" cx="269.5" cy="371.9" rx="28.2" ry="27.2"/>
	<ellipse class="st25" cx="269.5" cy="372.1" rx="22" ry="21.2"/>
	<rect x="260.2" y="363.1" class="st6" width="26.8" height="25.1"/>
	<text transform="matrix(1.0366 0 0 1 262.5288 384.4102)" class="st8 st26">A</text>
	<text transform="matrix(1.0366 0 0 1 262.5288 384.4102)" class="st27 st8 st26">A</text>
	<rect x="257.5" y="360.7" class="st6" width="26.8" height="25.1"/>
	<text transform="matrix(1.0366 0 0 1 259.8291 381.9834)" class="st7 st8 st26">A</text>
	<text transform="matrix(1.0366 0 0 1 259.8291 381.9834)" class="st27 st8 st26">A</text>
	<ellipse class="st24" cx="207" cy="371.9" rx="28.2" ry="27.2"/>
	<ellipse class="st25" cx="207" cy="372.1" rx="22" ry="21.2"/>
	<rect x="198.1" y="361.8" class="st6" width="26.8" height="25.1"/>
	<text transform="matrix(1.0366 0 0 1 200.4692 383.1338)" class="st8 st26">G</text>
	<text transform="matrix(1.0366 0 0 1 200.4692 383.1338)" class="st27 st8 st26">G</text>
	<rect x="195.1" y="359.3" class="st6" width="26.8" height="25.1"/>
	<text transform="matrix(1.0366 0 0 1 197.4619 380.6123)" class="st7 st8 st26">G</text>
	<text transform="matrix(1.0366 0 0 1 197.4619 380.6123)" class="st27 st8 st26">G</text>
	<rect x="15.5" y="474.1" class="st6" width="195.7" height="22.3"/>
</g>
</svg>
