<?xml version="1.0" encoding="utf-8"?>
<!-- Generator: Adobe Illustrator 20.1.0, SVG Export Plug-In . SVG Version: 6.00 Build 0)  -->
<svg version="1.1" id="Calque_1" xmlns="http://www.w3.org/2000/svg" xmlns:xlink="http://www.w3.org/1999/xlink" x="0px" y="0px"
	 viewBox="0 0 595.3 841.9" style="enable-background:new 0 0 595.3 841.9;" xml:space="preserve">
<style type="text/css">
	.st0{fill:#FFFFFF;stroke:#000000;stroke-miterlimit:10;}
	.st1{fill:none;stroke:#000000;stroke-width:3;stroke-miterlimit:10;}
	.st2{fill:#575756;}
	.st3{fill:none;stroke:#000000;stroke-width:5;stroke-miterlimit:10;}
	.st4{stroke:#000000;stroke-width:5;stroke-miterlimit:10;}
	.st5{fill:none;}
	.st6{font-family:'Symtext';}
	.st7{font-size:60px;}
	.st8{font-size:24px;}
</style>
<path class="st0" d="M452.6,532.3h-310c-26.5,0-48-21.5-48-48v-124c0-26.5,21.5-48,48-48h310c26.5,0,48,21.5,48,48v124
	C500.6,510.8,479.1,532.3,452.6,532.3z"/>
<circle class="st1" cx="361.3" cy="475.5" r="17.5"/>
<circle class="st1" cx="401.8" cy="442.9" r="17.5"/>
<circle class="st1" cx="413.9" cy="500.6" r="17.5"/>
<circle class="st1" cx="452" cy="468.2" r="17.5"/>
<circle class="st1" cx="442.3" cy="408.8" r="17.5"/>
<ellipse class="st2" cx="150.6" cy="432.6" rx="22" ry="23.3"/>
<line class="st3" x1="150.6" y1="432.6" x2="130" y2="354"/>
<ellipse class="st4" cx="151" cy="433.4" rx="4.7" ry="4.2"/>
<ellipse class="st4" cx="133.1" cy="365.8" rx="20.2" ry="21.4"/>
<rect x="179.1" y="338.3" class="st5" width="231" height="50"/>
<text transform="matrix(1 0 0 1 180.2922 382.2435)" class="st6 st7">RETRO</text>
<rect x="352.5" y="467.4" class="st5" width="21.3" height="20.7"/>
<text transform="matrix(1 0 0 1 354.4021 484.9637)" class="st6 st8">G</text>
<rect x="392.5" y="435.8" class="st5" width="21.3" height="20.7"/>
<text transform="matrix(1 0 0 1 394.4262 453.4115)" class="st6 st8">A</text>
<rect x="433.5" y="399.5" class="st5" width="21.3" height="20.7"/>
<text transform="matrix(1 0 0 1 433.6185 417.0781)" class="st6 st8">M</text>
<rect x="405.2" y="491.6" class="st5" width="21.3" height="20.7"/>
<text transform="matrix(1 0 0 1 407.0929 509.1516)" class="st6 st8">E</text>
<rect x="443.3" y="459.6" class="st5" width="21.3" height="20.7"/>
<text transform="matrix(1 0 0 1 445.1465 477.1807)" class="st6 st8">S</text>
<rect x="203.1" y="421.2" class="st5" width="150.7" height="50"/>
<text transform="matrix(1 0 0 1 203.0711 465.1113)" class="st6 st7">MAN</text>
</svg>
