<?xml version="1.0" encoding="utf-8"?>
<!-- Generator: Adobe Illustrator 20.1.0, SVG Export Plug-In . SVG Version: 6.00 Build 0)  -->
<svg version="1.1" id="Calque_1" xmlns="http://www.w3.org/2000/svg" xmlns:xlink="http://www.w3.org/1999/xlink" x="0px" y="0px"
	 viewBox="0 0 595.3 841.9" style="enable-background:new 0 0 595.3 841.9;" xml:space="preserve">
<style type="text/css">
	.st0{fill:#FFFFFF;stroke:#000000;stroke-width:3;stroke-miterlimit:10;}
	.st1{fill:none;}
	.st2{font-family:'Symtext';}
	.st3{font-size:48px;}
</style>
<polygon class="st0" points="533,286 533,523 64,523 64,286 40,286 40,259 557,259 557,286 "/>
<path class="st0" d="M490,487H103.5c-6.6,0-12-5.4-12-12V303.5c0-6.6,5.4-12,12-12H490c6.6,0,12,5.4,12,12V475
	C502,481.6,496.6,487,490,487z"/>
<polygon class="st0" points="251.5,503.5 345.5,503.5 300.6,516.8 "/>
<polygon class="st0" points="150,307 444,307 303.6,477 "/>
<rect x="212" y="314" class="st1" width="183.7" height="50.6"/>
<text transform="matrix(1 0 0 1 212 349.1563)" class="st2 st3">RETRO</text>
<rect x="212" y="370.4" class="st1" width="183.7" height="50.6"/>
<text transform="matrix(1 0 0 1 247.5952 405.5309)" class="st2 st3">MAN</text>
<rect x="212" y="431.4" class="st1" width="183.7" height="50.6"/>
<text transform="matrix(1 0 0 1 212 466.5309)" class="st2 st3">GAMES</text>
</svg>
