<?xml version="1.0" encoding="utf-8"?>
<!-- Generator: Adobe Illustrator 20.1.0, SVG Export Plug-In . SVG Version: 6.00 Build 0)  -->
<svg version="1.1" xmlns="http://www.w3.org/2000/svg" xmlns:xlink="http://www.w3.org/1999/xlink" x="0px" y="0px"
	 viewBox="0 0 595.3 841.9" style="enable-background:new 0 0 595.3 841.9;" xml:space="preserve">
<style type="text/css">
	.st0{fill:#B2B2B2;}
	.st1{fill:none;stroke:#000000;stroke-miterlimit:10;}
	.st2{fill:#878787;}
	.st3{fill:none;stroke:#000000;stroke-width:0.5;stroke-miterlimit:10;}
	.st4{fill:none;}
	.st5{font-family:'Symtext';}
	.st6{font-size:48px;}
	.st7{fill:#575756;}
	.st8{fill:none;stroke:#000000;stroke-width:5;stroke-miterlimit:10;}
	.st9{stroke:#000000;stroke-width:5;stroke-miterlimit:10;}
</style>
<g id="Calque_2">
	<g id="XMLID_2_">
		<g>
			<polygon class="st0" points="255.5,366.3 255.5,389.8 150.4,389.8 151.1,366.3 			"/>
		</g>
		<g>
			<polyline class="st1" points="255.5,366.3 255.5,389.8 150.4,389.8 151.1,366.3 			"/>
		</g>
	</g>
	<g id="XMLID_1_">
		<g>
			<polygon class="st0" points="230.5,282.1 255.5,366.3 151.1,366.3 151.1,366.2 151.1,365.9 133,282.1 			"/>
			<polygon class="st2" points="133,282.1 151.1,365.9 151.1,366.2 			"/>
			<polygon class="st0" points="151.1,366.2 150.4,389.4 133,304.5 133,282.1 			"/>
		</g>
		<g>
			<polyline class="st1" points="151.1,366.2 151.1,366.3 255.5,366.3 230.5,282.1 133,282.1 			"/>
			<polygon class="st3" points="151.1,366.2 150.4,389.4 133,304.5 133,282.1 151.1,365.9 			"/>
		</g>
	</g>
	<rect x="215" y="239.5" class="st4" width="185" height="37.5"/>
	<text transform="matrix(1 0 0 1 215 274.6244)" class="st5 st6">RETRO</text>
	<rect x="266" y="295.6" class="st4" width="185" height="37.5"/>
	<text transform="matrix(1 0 0 1 266 330.7917)" class="st5 st6">MAN</text>
	<rect x="304" y="352.3" class="st4" width="185" height="37.5"/>
	<text transform="matrix(1 0 0 1 304 387.4272)" class="st5 st6">GAMES</text>
</g>
<g id="Calque_1">
	<ellipse class="st7" cx="192.1" cy="324.2" rx="17.7" ry="19.7"/>
	<line class="st8" x1="192.1" y1="324.2" x2="175.5" y2="257.8"/>
	<ellipse class="st9" cx="192.4" cy="324.8" rx="3.8" ry="3.6"/>
	<ellipse class="st9" cx="178.6" cy="270" rx="16.3" ry="18.1"/>
</g>
</svg>
