<?xml version="1.0" encoding="utf-8"?>
<!-- Generator: Adobe Illustrator 20.1.0, SVG Export Plug-In . SVG Version: 6.00 Build 0)  -->
<svg version="1.1" id="Calque_1" xmlns="http://www.w3.org/2000/svg" xmlns:xlink="http://www.w3.org/1999/xlink" x="0px" y="0px"
	 viewBox="0 0 595.3 841.9" style="enable-background:new 0 0 595.3 841.9;" xml:space="preserve">
<style type="text/css">
	.st0{fill:#FFFFFF;stroke:#000000;stroke-width:3;stroke-miterlimit:10;}
	.st1{fill:none;stroke:#000000;stroke-width:3;stroke-miterlimit:10;}
	.st2{stroke:#000000;stroke-width:3;stroke-miterlimit:10;}
	.st3{fill:none;}
	.st4{font-family:'Symtext';}
	.st5{font-size:72px;}
	.st6{font-size:21px;}
	.st7{font-size:9px;}
	.st8{font-size:60px;}
	.st9{fill:#FFFFFF;stroke:#020203;stroke-miterlimit:10;}
	.st10{fill:none;stroke:#020203;stroke-width:3;stroke-miterlimit:10;}
	.st11{fill:#585857;}
	.st12{fill:none;stroke:#020203;stroke-width:5;stroke-miterlimit:10;}
	.st13{fill:#020203;stroke:#020203;stroke-width:5;stroke-miterlimit:10;}
	.st14{fill:#020203;}
	.st15{font-size:25.0784px;}
	.st16{font-size:10.0314px;}
</style>
<rect x="29.3" y="10" class="st0" width="539" height="532"/>
<path class="st0" d="M504.8,439h-412c-22.8,0-41.5-18.7-41.5-41.5v-325C51.3,49.7,70,31,92.8,31h412c22.8,0,41.5,18.7,41.5,41.5v325
	C546.3,420.3,527.7,439,504.8,439z"/>
<rect x="29.3" y="542" class="st0" width="539" height="118"/>
<circle class="st0" cx="73.3" cy="612" r="18"/>
<line class="st1" x1="73.3" y1="612" x2="55.3" y2="549"/>
<circle class="st2" cx="56" cy="548.3" r="17.3"/>
<ellipse transform="matrix(0.4934 -0.8698 0.8698 0.4934 -325.4156 677.5609)" class="st0" cx="418.9" cy="618.1" rx="18" ry="18"/>
<line class="st1" x1="418.9" y1="618.1" x2="434.4" y2="554.5"/>
<ellipse transform="matrix(0.4934 -0.8698 0.8698 0.4934 -261.5325 659.3807)" class="st2" cx="435.3" cy="554.2" rx="17.3" ry="17.3"/>
<circle class="st2" cx="130.3" cy="592" r="11.7"/>
<circle class="st2" cx="161.6" cy="592" r="11.7"/>
<circle class="st2" cx="193.7" cy="592" r="11.7"/>
<circle class="st2" cx="123.4" cy="620.5" r="11.7"/>
<circle class="st2" cx="153.6" cy="620.5" r="11.7"/>
<circle class="st2" cx="184.9" cy="621" r="11.7"/>
<circle class="st2" cx="474.2" cy="586.5" r="11.7"/>
<circle class="st2" cx="505.6" cy="586.5" r="11.7"/>
<circle class="st2" cx="537.7" cy="586.5" r="11.7"/>
<circle class="st2" cx="466.9" cy="615.5" r="11.7"/>
<circle class="st2" cx="497.6" cy="615.5" r="11.7"/>
<circle class="st2" cx="528.9" cy="615.5" r="11.7"/>
<rect x="294.6" y="566.6" class="st0" width="17.1" height="46.6"/>
<rect x="300.7" y="572.1" class="st2" width="4.8" height="35.7"/>
<rect x="113.5" y="159.3" class="st3" width="379.3" height="151.3"/>
<text transform="matrix(1 0 0 1 155.513 212.0676)"><tspan x="0" y="0" class="st4 st5">INSERT </tspan><tspan x="58" y="86.4" class="st4 st5">COIN</tspan></text>
<rect x="283.7" y="339.3" width="32.4" height="50.7"/>
<polygon points="269.5,390 299.9,426 330.3,390 "/>
<circle class="st0" cx="156.7" cy="520.3" r="21.7"/>
<rect x="139.8" y="507.7" class="st3" width="36.9" height="28.7"/>
<text transform="matrix(1 0 0 1 141.2735 523.0405)"><tspan x="0" y="0" class="st4 st6">50</tspan><tspan x="6.4" y="10.8" class="st4 st7">cts</tspan></text>
<circle class="st0" cx="218.3" cy="520.3" r="21.7"/>
<rect x="201.3" y="507.7" class="st3" width="36.9" height="28.7"/>
<text transform="matrix(1 0 0 1 202.8073 523.0405)"><tspan x="0" y="0" class="st4 st6">50</tspan><tspan x="6.4" y="10.8" class="st4 st7">cts</tspan></text>
<circle class="st0" cx="410.9" cy="519.6" r="21.7"/>
<rect x="394" y="506.9" class="st3" width="36.9" height="28.7"/>
<text transform="matrix(1 0 0 1 395.474 522.2749)"><tspan x="0" y="0" class="st4 st6">50</tspan><tspan x="6.4" y="10.8" class="st4 st7">cts</tspan></text>
<rect x="167.5" y="716.5" class="st3" width="272.5" height="54"/>
<text transform="matrix(1 0 0 1 167.5195 760.4453)" class="st4 st8">Footer</text>
<g>
	<g id="Calque_2_1_">
		<path class="st9" d="M356.9,136.2H234.5c-10.5,0-18.9-9-18.9-20.1V64.3c0-11.1,8.5-20.1,18.9-20.1h122.4c10.5,0,18.9,9,18.9,20.1
			v51.8C375.9,127.2,367.4,136.2,356.9,136.2z"/>
	</g>
	<g id="Calque_1_2_">
		<ellipse class="st10" cx="271.2" cy="121.4" rx="6.9" ry="7.3"/>
		<ellipse class="st10" cx="290.8" cy="121.4" rx="6.9" ry="7.3"/>
		<ellipse class="st10" cx="328.8" cy="121.8" rx="6.9" ry="7.3"/>
		<ellipse class="st10" cx="346.6" cy="121.7" rx="6.9" ry="7.3"/>
		<ellipse class="st10" cx="309.8" cy="121.4" rx="6.9" ry="7.3"/>
		<ellipse class="st11" cx="237.7" cy="94.5" rx="8.7" ry="9.7"/>
		<line class="st12" x1="237.7" y1="94.5" x2="229.6" y2="61.7"/>
		<ellipse class="st13" cx="237.8" cy="94.9" rx="1.9" ry="1.8"/>
		<ellipse class="st13" cx="231.1" cy="67.8" rx="8" ry="8.9"/>
		<rect x="245.8" y="55.1" class="st3" width="91.2" height="20.9"/>
		<text transform="matrix(0.9445 0 0 1 246.2709 73.4978)" class="st14 st4 st15">RETRO</text>
		<rect x="267" y="118" class="st3" width="8.4" height="8.7"/>
		<text transform="matrix(0.9445 0 0 1 267.7162 125.363)" class="st14 st4 st16">G</text>
		<rect x="287.2" y="117.4" class="st3" width="8.4" height="8.7"/>
		<text transform="matrix(0.9445 0 0 1 287.9067 124.7663)" class="st14 st4 st16">A</text>
		<rect x="306.3" y="117.3" class="st3" width="8.4" height="8.7"/>
		<text transform="matrix(0.9445 0 0 1 306.3032 124.6804)" class="st14 st4 st16">M</text>
		<rect x="325.2" y="117.9" class="st3" width="8.4" height="8.7"/>
		<text transform="matrix(0.9445 0 0 1 325.9448 125.2214)" class="st14 st4 st16">E</text>
		<rect x="343.3" y="118.2" class="st3" width="8.4" height="8.7"/>
		<text transform="matrix(0.9445 0 0 1 344.0375 125.5163)" class="st14 st4 st16">S</text>
		<rect x="268" y="84.8" class="st3" width="59.5" height="20.9"/>
		<text transform="matrix(0.9445 0 0 1 267.9789 103.1452)" class="st14 st4 st15">MAN</text>
	</g>
</g>
</svg>
